<svg xmlns="http://www.w3.org/2000/svg" xmlns:xlink="http://www.w3.org/1999/xlink" viewBox="0 0 96 16"><path d="M4.51 4.24L8.02 12.83L6.73 12.83L5.72 10.21L2.14 10.21L1.19 12.83L-0.01 12.83L3.29 4.24L4.51 4.24ZM2.46 9.31L5.38 9.31L5.38 9.31Q4.32 6.52 4.19 6.14L4.19 6.14L4.19 6.14Q4.05 5.77 3.89 5.13L3.89 5.13L3.86 5.13L3.86 5.13Q3.70 6 3.42 6.74L3.42 6.74L2.46 9.31ZM13.89 9L13.89 12.83L12.83 12.83L12.83 9.05L12.83 9.05Q12.83 8.09 12.48 7.73L12.48 7.73L12.48 7.73Q12.14 7.38 11.53 7.38L11.53 7.38L11.53 7.38Q11.06 7.38 10.64 7.61L10.64 7.61L10.64 7.61Q10.22 7.83 10.05 8.25L10.05 8.25L10.05 8.25Q9.87 8.67 9.87 9.43L9.87 9.43L9.87 12.83L8.82 12.83L8.82 6.61L9.77 6.61L9.77 7.49L9.79 7.49L9.79 7.49Q10.13 6.98 10.61 6.72L10.61 6.72L10.61 6.72Q11.10 6.47 11.75 6.47L11.75 6.47L11.75 6.47Q12.24 6.47 12.72 6.64L12.72 6.64L12.72 6.64Q13.20 6.82 13.47 7.17L13.47 7.17L13.47 7.17Q13.75 7.52 13.82 7.92L13.82 7.92L13.82 7.92Q13.89 8.32 13.89 9L13.89 9ZM20.56 9L20.56 12.83L19.50 12.83L19.50 9.05L19.50 9.05Q19.50 8.09 19.16 7.73L19.16 7.73L19.16 7.73Q18.81 7.38 18.21 7.38L18.21 7.38L18.21 7.38Q17.74 7.38 17.32 7.61L17.32 7.61L17.32 7.61Q16.90 7.83 16.72 8.25L16.72 8.25L16.72 8.25Q16.55 8.67 16.55 9.43L16.55 9.43L16.55 12.83L15.49 12.83L15.49 6.61L16.44 6.61L16.44 7.49L16.46 7.49L16.46 7.49Q16.80 6.98 17.29 6.72L17.29 6.72L17.29 6.72Q17.78 6.47 18.42 6.47L18.42 6.47L18.42 6.47Q18.91 6.47 19.39 6.64L19.39 6.64L19.39 6.64Q19.88 6.82 20.15 7.17L20.15 7.17L20.15 7.17Q20.42 7.52 20.49 7.92L20.49 7.92L20.49 7.92Q20.56 8.32 20.56 9L20.56 9ZM24.69 6.47L24.69 6.47L24.69 6.47Q25.95 6.47 26.77 7.29L26.77 7.29L26.77 7.29Q27.60 8.11 27.60 9.62L27.60 9.62L27.60 9.62Q27.60 11.46 26.71 12.21L26.71 12.21L26.71 12.21Q25.81 12.97 24.69 12.97L24.69 12.97L24.69 12.97Q23.51 12.97 22.64 12.19L22.64 12.19L22.64 12.19Q21.77 11.41 21.77 9.72L21.77 9.72L21.77 9.72Q21.77 8.08 22.61 7.27L22.61 7.27L22.61 7.27Q23.45 6.47 24.69 6.47ZM24.69 12.11L24.69 12.11L24.69 12.11Q25.59 12.11 26.06 11.44L26.06 11.44L26.06 11.44Q26.53 10.77 26.53 9.68L26.53 9.68L26.53 9.68Q26.53 8.51 26.00 7.92L26.00 7.92L26.00 7.92Q25.46 7.33 24.69 7.33L24.69 7.33L24.69 7.33Q23.88 7.33 23.37 7.93L23.37 7.93L23.37 7.93Q22.85 8.53 22.85 9.72L22.85 9.72L22.85 9.72Q22.85 10.90 23.38 11.50L23.38 11.50L23.38 11.50Q23.90 12.11 24.69 12.11ZM33.91 9L33.91 12.83L32.85 12.83L32.85 9.05L32.85 9.05Q32.85 8.09 32.50 7.73L32.50 7.73L32.50 7.73Q32.16 7.38 31.55 7.38L31.55 7.38L31.55 7.38Q31.08 7.38 30.67 7.61L30.67 7.61L30.67 7.61Q30.25 7.83 30.07 8.25L30.07 8.25L30.07 8.25Q29.89 8.67 29.89 9.43L29.89 9.43L29.89 12.83L28.84 12.83L28.84 6.61L29.79 6.61L29.79 7.49L29.81 7.49L29.81 7.49Q30.15 6.98 30.64 6.72L30.64 6.72L30.64 6.72Q31.13 6.47 31.77 6.47L31.77 6.47L31.77 6.47Q32.26 6.47 32.74 6.64L32.74 6.64L32.74 6.64Q33.22 6.82 33.50 7.17L33.50 7.17L33.50 7.17Q33.77 7.52 33.84 7.92L33.84 7.92L33.84 7.92Q33.91 8.32 33.91 9L33.91 9ZM39.54 10.55L40.59 10.68L40.59 10.68Q40.39 11.87 39.66 12.42L39.66 12.42L39.66 12.42Q38.92 12.97 38.00 12.97L38.00 12.97L38.00 12.97Q36.64 12.97 35.91 12.08L35.91 12.08L35.91 12.08Q35.17 11.20 35.17 9.73L35.17 9.73L35.17 9.73Q35.17 8.52 35.59 7.79L35.59 7.79L35.59 7.79Q36.02 7.06 36.66 6.76L36.66 6.76L36.66 6.76Q37.29 6.47 38.00 6.47L38.00 6.47L38.00 6.47Q38.96 6.47 39.64 6.97L39.64 6.97L39.64 6.97Q40.32 7.46 40.48 8.43L40.48 8.43L39.46 8.59L39.46 8.59Q39.30 7.96 38.95 7.65L38.95 7.65L38.95 7.65Q38.60 7.33 38.04 7.33L38.04 7.33L38.04 7.33Q37.16 7.33 36.70 7.96L36.70 7.96L36.70 7.96Q36.25 8.58 36.25 9.71L36.25 9.71L36.25 9.71Q36.25 10.86 36.69 11.48L36.69 11.48L36.69 11.48Q37.14 12.11 37.99 12.11L37.99 12.11L37.99 12.11Q38.67 12.11 39.06 11.72L39.06 11.72L39.06 11.72Q39.45 11.33 39.54 10.55L39.54 10.55ZM46.90 9.98L46.90 9.98L42.25 9.98L42.25 9.98Q42.31 11.02 42.83 11.56L42.83 11.56L42.83 11.56Q43.36 12.11 44.14 12.11L44.14 12.11L44.14 12.11Q44.75 12.11 45.16 11.79L45.16 11.79L45.16 11.79Q45.57 11.47 45.79 10.82L45.79 10.82L46.87 10.96L46.87 10.96Q46.61 11.93 45.90 12.45L45.90 12.45L45.90 12.45Q45.20 12.97 44.14 12.97L44.14 12.97L44.14 12.97Q42.74 12.97 41.96 12.11L41.96 12.11L41.96 12.11Q41.17 11.26 41.17 9.77L41.17 9.77L41.17 9.77Q41.17 8.30 41.93 7.38L41.93 7.38L41.93 7.38Q42.70 6.47 44.09 6.47L44.09 6.47L44.09 6.47Q44.77 6.47 45.40 6.77L45.40 6.77L45.40 6.77Q46.03 7.07 46.46 7.78L46.46 7.78L46.46 7.78Q46.90 8.50 46.90 9.98ZM42.30 9.12L45.82 9.12L45.82 9.12Q45.76 8.17 45.23 7.75L45.23 7.75L45.23 7.75Q44.71 7.33 44.09 7.33L44.09 7.33L44.09 7.33Q43.34 7.33 42.86 7.83L42.86 7.83L42.86 7.83Q42.38 8.33 42.30 9.12L42.30 9.12ZM52.68 8.21L51.64 8.35L51.64 8.35Q51.57 7.84 51.23 7.58L51.23 7.58L51.23 7.58Q50.89 7.33 50.28 7.33L50.28 7.33L50.28 7.33Q49.68 7.33 49.30 7.54L49.30 7.54L49.30 7.54Q48.93 7.74 48.93 8.13L48.93 8.13L48.93 8.13Q48.93 8.50 49.23 8.66L49.23 8.66L49.23 8.66Q49.52 8.82 50.40 9.05L50.40 9.05L50.40 9.05Q51.38 9.30 51.87 9.49L51.87 9.49L51.87 9.49Q52.36 9.69 52.63 10.03L52.63 10.03L52.63 10.03Q52.90 10.38 52.90 11.00L52.90 11.00L52.90 11.00Q52.90 11.84 52.22 12.40L52.22 12.40L52.22 12.40Q51.54 12.97 50.41 12.97L50.41 12.97L50.41 12.97Q49.22 12.97 48.56 12.47L48.56 12.47L48.56 12.47Q47.89 11.97 47.74 10.97L47.74 10.97L48.79 10.81L48.79 10.81Q48.87 11.46 49.27 11.78L49.27 11.78L49.27 11.78Q49.68 12.11 50.40 12.11L50.40 12.11L50.40 12.11Q51.09 12.11 51.46 11.82L51.46 11.82L51.46 11.82Q51.83 11.53 51.83 11.11L51.83 11.11L51.83 11.11Q51.83 10.83 51.66 10.66L51.66 10.66L51.66 10.66Q51.49 10.49 51.23 10.40L51.23 10.40L51.23 10.40Q50.98 10.32 50.09 10.10L50.09 10.10L50.09 10.10Q48.76 9.79 48.34 9.33L48.34 9.33L48.34 9.33Q47.91 8.88 47.91 8.26L47.91 8.26L47.91 8.26Q47.91 7.48 48.53 6.97L48.53 6.97L48.53 6.97Q49.15 6.47 50.20 6.47L50.20 6.47L50.20 6.47Q51.32 6.47 51.93 6.91L51.93 6.91L51.93 6.91Q52.55 7.34 52.68 8.21L52.68 8.21ZM65.27 8.44L65.27 11.63L65.27 11.63Q63.65 12.97 61.72 12.97L61.72 12.97L61.72 12.97Q59.75 12.97 58.54 11.77L58.54 11.77L58.54 11.77Q57.33 10.56 57.33 8.57L57.33 8.57L57.33 8.57Q57.33 7.35 57.82 6.30L57.82 6.30L57.82 6.30Q58.32 5.24 59.28 4.67L59.28 4.67L59.28 4.67Q60.25 4.09 61.64 4.09L61.64 4.09L61.64 4.09Q63.09 4.09 63.96 4.73L63.96 4.73L63.96 4.73Q64.84 5.36 65.14 6.63L65.14 6.63L64.13 6.92L64.13 6.92Q63.88 5.99 63.26 5.53L63.26 5.53L63.26 5.53Q62.64 5.06 61.64 5.06L61.64 5.06L61.64 5.06Q60.09 5.06 59.30 6.01L59.30 6.01L59.30 6.01Q58.51 6.96 58.51 8.50L58.51 8.50L58.51 8.50Q58.51 9.64 58.89 10.41L58.89 10.41L58.89 10.41Q59.27 11.17 60.03 11.56L60.03 11.56L60.03 11.56Q60.78 11.95 61.66 11.95L61.66 11.95L61.66 11.95Q63.01 11.95 64.17 11.06L64.17 11.06L64.17 9.47L61.64 9.47L61.64 8.44L65.27 8.44ZM69.38 6.47L69.38 6.47L69.38 6.47Q70.63 6.47 71.46 7.29L71.46 7.29L71.46 7.29Q72.29 8.11 72.29 9.62L72.29 9.62L72.29 9.62Q72.29 11.46 71.40 12.21L71.40 12.21L71.40 12.21Q70.50 12.97 69.38 12.97L69.38 12.97L69.38 12.97Q68.20 12.97 67.33 12.19L67.33 12.19L67.33 12.19Q66.46 11.41 66.46 9.72L66.46 9.72L66.46 9.72Q66.46 8.08 67.30 7.27L67.30 7.27L67.30 7.27Q68.14 6.47 69.38 6.47ZM69.38 12.11L69.38 12.11L69.38 12.11Q70.28 12.11 70.75 11.44L70.75 11.44L70.75 11.44Q71.21 10.77 71.21 9.68L71.21 9.68L71.21 9.68Q71.21 8.51 70.68 7.92L70.68 7.92L70.68 7.92Q70.15 7.33 69.38 7.33L69.38 7.33L69.38 7.33Q68.57 7.33 68.06 7.93L68.06 7.93L68.06 7.93Q67.54 8.53 67.54 9.72L67.54 9.72L67.54 9.72Q67.54 10.90 68.07 11.50L68.07 11.50L68.07 11.50Q68.59 12.11 69.38 12.11ZM76.05 6.47L76.05 6.47L76.05 6.47Q77.31 6.47 78.14 7.29L78.14 7.29L78.14 7.29Q78.97 8.11 78.97 9.62L78.97 9.62L78.97 9.62Q78.97 11.46 78.07 12.21L78.07 12.21L78.07 12.21Q77.17 12.97 76.05 12.97L76.05 12.97L76.05 12.97Q74.87 12.97 74.00 12.19L74.00 12.19L74.00 12.19Q73.14 11.41 73.14 9.72L73.14 9.72L73.14 9.72Q73.14 8.08 73.97 7.27L73.97 7.27L73.97 7.27Q74.81 6.47 76.05 6.47ZM76.05 12.11L76.05 12.11L76.05 12.11Q76.95 12.11 77.42 11.44L77.42 11.44L77.42 11.44Q77.89 10.77 77.89 9.68L77.89 9.68L77.89 9.68Q77.89 8.51 77.36 7.92L77.36 7.92L77.36 7.92Q76.83 7.33 76.05 7.33L76.05 7.33L76.05 7.33Q75.25 7.33 74.73 7.93L74.73 7.93L74.73 7.93Q74.21 8.53 74.21 9.72L74.21 9.72L74.21 9.72Q74.21 10.90 74.74 11.50L74.74 11.50L74.74 11.50Q75.26 12.11 76.05 12.11ZM85.28 6.61L85.28 11.99L85.28 11.99Q85.28 13.31 85.02 13.97L85.02 13.97L85.02 13.97Q84.76 14.62 84.08 14.98L84.08 14.98L84.08 14.98Q83.41 15.35 82.47 15.35L82.47 15.35L82.47 15.35Q81.42 15.35 80.71 14.88L80.71 14.88L80.71 14.88Q80.01 14.41 80.01 13.34L80.01 13.34L81.04 13.50L81.04 13.50Q81.09 13.99 81.45 14.24L81.45 14.24L81.45 14.24Q81.80 14.48 82.46 14.48L82.46 14.48L82.46 14.48Q83.28 14.48 83.66 14.15L83.66 14.15L83.66 14.15Q84.04 13.82 84.13 13.34L84.13 13.34L84.13 13.34Q84.21 12.86 84.21 12.01L84.21 12.01L84.21 12.01Q83.53 12.83 82.48 12.83L82.48 12.83L82.48 12.83Q81.27 12.83 80.53 11.93L80.53 11.93L80.53 11.93Q79.80 11.03 79.80 9.67L79.80 9.67L79.80 9.67Q79.80 8.30 80.51 7.38L80.51 7.38L80.51 7.38Q81.23 6.47 82.49 6.47L82.49 6.47L82.49 6.47Q83.60 6.47 84.29 7.35L84.29 7.35L84.31 7.35L84.31 6.61L85.28 6.61ZM82.58 11.96L82.58 11.96L82.58 11.96Q83.26 11.96 83.78 11.43L83.78 11.43L83.78 11.43Q84.30 10.89 84.30 9.63L84.30 9.63L84.30 9.63Q84.30 8.52 83.80 7.92L83.80 7.92L83.80 7.92Q83.30 7.33 82.57 7.33L82.57 7.33L82.57 7.33Q81.82 7.33 81.35 7.94L81.35 7.94L81.35 7.94Q80.88 8.55 80.88 9.61L80.88 9.61L80.88 9.61Q80.88 10.83 81.37 11.40L81.37 11.40L81.37 11.40Q81.87 11.96 82.58 11.96ZM87.92 4.24L87.92 12.83L86.87 12.83L86.87 4.24L87.92 4.24ZM94.93 9.98L94.93 9.98L90.28 9.98L90.28 9.98Q90.34 11.02 90.86 11.56L90.86 11.56L90.86 11.56Q91.39 12.11 92.17 12.11L92.17 12.11L92.17 12.11Q92.78 12.11 93.19 11.79L93.19 11.79L93.19 11.79Q93.60 11.47 93.81 10.82L93.81 10.82L94.90 10.96L94.90 10.96Q94.63 11.93 93.93 12.45L93.93 12.45L93.93 12.45Q93.23 12.97 92.17 12.97L92.17 12.97L92.17 12.97Q90.77 12.97 89.99 12.11L89.99 12.11L89.99 12.11Q89.20 11.26 89.20 9.77L89.20 9.77L89.20 9.77Q89.20 8.30 89.96 7.38L89.96 7.38L89.96 7.38Q90.73 6.47 92.12 6.47L92.12 6.47L92.12 6.47Q92.79 6.47 93.42 6.77L93.42 6.77L93.42 6.77Q94.05 7.07 94.49 7.78L94.49 7.78L94.49 7.78Q94.93 8.50 94.93 9.98ZM90.33 9.12L93.85 9.12L93.85 9.12Q93.79 8.17 93.26 7.75L93.26 7.75L93.26 7.75Q92.74 7.33 92.12 7.33L92.12 7.33L92.12 7.33Q91.37 7.33 90.89 7.83L90.89 7.83L90.89 7.83Q90.41 8.33 90.33 9.12L90.33 9.12Z"></path></svg>