<svg data-v-56f2bd16="" width="24" height="13" viewBox="0 0 16 23" fill="none" xmlns="http://www.w3.org/2000/svg" class="cadena" data-di-res-id="ba5f18c7-6a9876d8" data-di-rand="1731318581949"><path data-v-56f2bd16="" fill-rule="evenodd" clip-rule="evenodd" d="M2 6C2 2.68629 4.68629 0 8 0C11.3137 0 14 2.68629 14 6V10C15.1046 10 16 10.8954 16 12V21C16 22.1046 15.1046 23 14 23H2C0.895431 23 0 22.1046 0 21V12C0 10.8954 0.895431 10 2 10V6ZM11.5 6C11.5 4.067 9.933 2.5 8 2.5C6.067 2.5 4.5 4.067 4.5 6V10H11.5V6Z" fill="black"></path></svg>